<?xml version="1.0" encoding="utf-8"?>
<!-- Generator: Adobe Illustrator 27.3.1, SVG Export Plug-In . SVG Version: 6.00 Build 0)  -->
<svg version="1.1" id="Camada_2" xmlns="http://www.w3.org/2000/svg" xmlns:xlink="http://www.w3.org/1999/xlink" x="0px" y="0px"
	 viewBox="0 0 2000 2000" style="enable-background:new 0 0 2000 2000;" xml:space="preserve">
<style type="text/css">
	.st0{fill:#1D1D1B;stroke:#1D1D1B;stroke-width:9;stroke-miterlimit:10;}
	.st1{fill:none;stroke:#1D1D1B;stroke-width:9;stroke-miterlimit:10;}
	.st2{display:none;}
	.st3{display:inline;}
	.st4{fill:#1D1D1B;stroke:#1D1D1B;}
	.st5{fill:#1D1D1B;stroke:#1D1D1B;stroke-miterlimit:10;}
	.st6{display:inline;fill:#1D1D1B;stroke:#1D1D1B;stroke-miterlimit:10;}
</style>
<path class="st0" d="M979.7,1170.3"/>
<g>
	<path class="st1" d="M1000,996.7"/>
	<path class="st1" d="M1053.4,1090.5 M1098.3,1045.6 M1310.8,887.8 M1050.8,998.1 M1300.9,897.6h-217.2 M1333,865.6h-203.3
		 M1152.7,998.1h-75.3 M946.6,1090.5 M901.7,1045.6 M1085.8,822.6l-58.2,58.2l-27.6,27.6l-85.8-85.8H667v42.9l32.1,32.1l13.4,43.5
		c0,0,11.7,0,30.2,0.1l0.3,0.3l26.1,56.5h78.2l27,74.8l27.3-27.3l47.5-47.5h23.2v66.7l-25.8,25.8l-27.3,27.3l-19.4,19.4l40.1,40.1
		h120l40.1-40.1l-19.4-19.4l-27.3-27.3l-25.8-25.8v-66.7h23.2l47.5,47.5l27.3,27.3l27-74.8h78.2l26.1-56.5l0.3-0.3
		c18.5-0.1,30.2-0.1,30.2-0.1l13.4-43.5l32.1-32.1v-42.9H1085.8z M949.2,998.1 M699.1,897.6h217.2 M667,865.6h203.3 M847.3,998.1
		h75.3 M963.6,872.1 M1000,908.5 M1257.3,941.3h-127.6 M742.7,941.3h127.6"/>
</g>
<g class="st2">
	<g class="st3">
		<path class="st4" d="M883.2,1034.5V899h31.3l50.5,103.9l-2.2,2.4V899h24.4v135.5h-31.4l-50.3-102.3l2.2-2.4v104.8H883.2z"/>
		<polygon class="st5" points="1122.1,1034.6 1094.5,1034.6 1086.9,1012.9 1078.3,988.3 1062.1,942 1045.9,988.3 1037.2,1012.9 
			1029.6,1034.6 1002.1,1034.6 1054,899 1070.2,899 		"/>
		<path class="st4" d="M1161.6,1034.6L1116.5,899h26.3l28.8,90.5l28.8-90.5h26.3l-45.2,135.6H1161.6z"/>
		<path class="st4" d="M1268.1,899v135.6h-26.5V899H1268.1z"/>
		<path class="st4" d="M1298,1034.6V899h16.2v135.6H1298z M1307.8,982v-15.3h43.4c7.2,0,12.9-2.4,17.2-7.2
			c4.3-4.8,6.5-11.1,6.5-18.9c0-8-2.2-14.3-6.5-19.1c-4.3-4.8-10.1-7.2-17.2-7.2h-43.4V899h42.7c8.2,0,15.4,1.7,21.5,5.2
			c6.1,3.5,10.8,8.3,14.2,14.5c3.4,6.2,5.1,13.5,5.1,21.9c0,8.3-1.7,15.5-5.1,21.7c-3.4,6.2-8.1,11.1-14.2,14.5
			c-6.1,3.5-13.2,5.2-21.5,5.2H1307.8z"/>
		<path class="st4" d="M1502.2,1034.6L1502.2,1034.6L1502.2,1034.6L1502.2,1034.6z"/>
		<polygon class="st5" points="1618.4,1034.6 1600.7,1034.6 1589.7,1003.2 1584.4,987.9 1560.3,919.1 1536.2,987.9 1530.9,1003.2 
			1519.9,1034.6 1502.2,1034.6 1502.2,1034.6 1502.2,1034.6 1502.2,1034.6 1502.2,1034.6 1415.1,1034.6 1415.1,899 1431.3,899 
			1431.3,1019.3 1507.8,1019.3 1552.2,899 1568.4,899 		"/>
		<polygon class="st5" points="1502.2,1034.6 1502.2,1034.6 1502.2,1034.6 		"/>
		<path class="st4" d="M1638.9,1034.5V898.9h15.4l72.6,113.5l-3.9-0.7V898.9h16.1v135.5h-15.6l-73.2-113.2l4.8,1.5v111.8H1638.9z"/>
	</g>
	<g class="st3">
		<path class="st4" d="M883.2,1100.5l19.7-54h6.4l19.7,54h-8.1l-14.8-43.6l-14.8,43.6H883.2z M892.3,1088.6v-7.2h28.1v7.2H892.3z"/>
		<path class="st4" d="M945.7,1100.5l-17.4-54h8.2l12.8,42.3l12.8-42.3h8.2l-17.4,54H945.7z"/>
		<path class="st4" d="M985.8,1046.5v54h-7.5v-54H985.8z"/>
		<path class="st4" d="M993.2,1100.5l19.7-54h6.4l19.7,54h-8.1l-14.8-43.6l-14.8,43.6H993.2z M1002.3,1088.6v-7.2h28.1v7.2H1002.3z"
			/>
		<path class="st4" d="M1038.2,1053.7v-7.2h37.7v7.2H1038.2z M1053.3,1100.5v-49.6h7.5v49.6H1053.3z"/>
		<path class="st4" d="M1090.8,1046.5v54h-7.5v-54H1090.8z"/>
		<path class="st4" d="M1121.7,1101.1c-3.8,0-7.1-0.8-9.9-2.5c-2.8-1.6-5-4-6.6-7c-1.6-3-2.3-6.5-2.3-10.5v-15.3
			c0-4,0.8-7.5,2.3-10.5c1.6-3,3.7-5.3,6.6-6.9c2.8-1.6,6.1-2.5,9.9-2.5c3.8,0,7.1,0.8,9.9,2.5c2.8,1.6,5,4,6.6,6.9
			c1.6,3,2.3,6.5,2.3,10.5v15.3c0,4-0.8,7.5-2.3,10.5c-1.6,3-3.7,5.3-6.6,7C1128.8,1100.2,1125.5,1101.1,1121.7,1101.1z
			 M1121.7,1093.6c3.4,0,6-1.1,8.1-3.3c2-2.2,3-5.2,3-8.8v-15.8c0-3.7-1-6.6-3-8.9c-2-2.2-4.7-3.3-8.1-3.3c-3.3,0-6,1.1-8,3.3
			c-2,2.2-3,5.2-3,8.9v15.8c0,3.7,1,6.6,3,8.8C1115.7,1092.5,1118.4,1093.6,1121.7,1093.6z"/>
		<path class="st4" d="M1151.9,1100.5v-54h6.8l26.1,41.8l-0.9,1v-42.7h7.4v54h-6.9l-26.1-41.1l0.9-1v42.1H1151.9z"/>
		<path class="st4" d="M1224.8,1100.5v-54h7.5v54H1224.8z M1228.4,1053.7v-7.2h29.9v7.2H1228.4z M1228.4,1077.8v-7.2h25.9v7.2
			H1228.4z"/>
		<path class="st4" d="M1284.5,1101.1c-3.8,0-7.1-0.8-9.9-2.5c-2.8-1.6-5-4-6.6-7c-1.6-3-2.3-6.5-2.3-10.5v-15.3
			c0-4,0.8-7.5,2.3-10.5c1.6-3,3.7-5.3,6.6-6.9c2.8-1.6,6.1-2.5,9.9-2.5c3.8,0,7.1,0.8,9.9,2.5c2.8,1.6,5,4,6.6,6.9
			c1.6,3,2.3,6.5,2.3,10.5v15.3c0,4-0.8,7.5-2.3,10.5c-1.6,3-3.7,5.3-6.6,7C1291.6,1100.2,1288.3,1101.1,1284.5,1101.1z
			 M1284.5,1093.6c3.4,0,6-1.1,8.1-3.3c2-2.2,3-5.2,3-8.8v-15.8c0-3.7-1-6.6-3-8.9c-2-2.2-4.7-3.3-8.1-3.3c-3.3,0-6,1.1-8,3.3
			c-2,2.2-3,5.2-3,8.9v15.8c0,3.7,1,6.6,3,8.8C1278.5,1092.5,1281.2,1093.6,1284.5,1093.6z"/>
		<path class="st4" d="M1314.7,1100.5v-54.1h7.5v54.1H1314.7z M1318,1077.6v-7.2h18.2c2.2,0,3.9-0.8,5.3-2.3c1.3-1.5,2-3.6,2-6.1
			c0-2.5-0.7-4.6-2-6.1c-1.3-1.5-3.1-2.3-5.3-2.3H1318v-7.2h17.9c3.1,0,5.8,0.7,8.2,2c2.3,1.3,4.1,3.1,5.4,5.4
			c1.3,2.3,1.9,5.1,1.9,8.2c0,3.1-0.6,5.9-1.9,8.2c-1.3,2.3-3.1,4.2-5.4,5.5c-2.3,1.3-5,2-8.1,2H1318z M1344.8,1100.5l-12.2-24.5
			l7.5-1.7l13.7,26.2H1344.8z"/>
		<path class="st4" d="M1384,1100.5v-54h7.5v54H1384z M1387.6,1053.7v-7.2h30.7v7.2H1387.6z M1387.6,1077.3v-7.2h26.6v7.2H1387.6z
			 M1387.6,1100.5v-7.2h30.7v7.2H1387.6z"/>
		<path class="st4" d="M1440.8,1100.5l-17.4-54h8.2l12.8,42.3l12.8-42.3h8.2l-17.4,54H1440.8z"/>
		<path class="st4" d="M1473.5,1100.5v-54h7.5v54H1473.5z M1477.1,1053.7v-7.2h30.7v7.2H1477.1z M1477.1,1077.3v-7.2h26.6v7.2
			H1477.1z M1477.1,1100.5v-7.2h30.7v7.2H1477.1z"/>
		<path class="st4" d="M1518.5,1100.5v-54.1h7.5v54.1H1518.5z M1521.7,1077.6v-7.2h18.2c2.2,0,3.9-0.8,5.3-2.3c1.3-1.5,2-3.6,2-6.1
			c0-2.5-0.7-4.6-2-6.1c-1.3-1.5-3.1-2.3-5.3-2.3h-18.2v-7.2h17.9c3.1,0,5.8,0.7,8.2,2c2.3,1.3,4.1,3.1,5.4,5.4
			c1.3,2.3,1.9,5.1,1.9,8.2c0,3.1-0.6,5.9-1.9,8.2c-1.3,2.3-3.1,4.2-5.4,5.5c-2.3,1.3-5,2-8.1,2H1521.7z M1548.5,1100.5l-12.2-24.5
			l7.5-1.7l13.7,26.2H1548.5z"/>
		<path class="st4" d="M1599.5,1046.5l-16.3,32.1v22h-7.5v-22l-16.3-32.1h8.3l11.7,24.4l11.7-24.4H1599.5z"/>
		<path class="st4" d="M1621.9,1101.1c-3.8,0-7.1-0.8-9.9-2.5c-2.8-1.6-5-4-6.6-7c-1.6-3-2.3-6.5-2.3-10.5v-15.3
			c0-4,0.8-7.5,2.3-10.5s3.7-5.3,6.6-6.9c2.8-1.6,6.1-2.5,9.9-2.5s7.1,0.8,9.9,2.5c2.8,1.6,5,4,6.6,6.9c1.6,3,2.3,6.5,2.3,10.5v15.3
			c0,4-0.8,7.5-2.3,10.5c-1.6,3-3.7,5.3-6.6,7C1629,1100.2,1625.7,1101.1,1621.9,1101.1z M1621.9,1093.6c3.4,0,6-1.1,8.1-3.3
			c2-2.2,3-5.2,3-8.8v-15.8c0-3.7-1-6.6-3-8.9c-2-2.2-4.7-3.3-8.1-3.3c-3.3,0-6,1.1-8,3.3c-2,2.2-3,5.2-3,8.9v15.8
			c0,3.7,1,6.6,3,8.8C1615.9,1092.5,1618.6,1093.6,1621.9,1093.6z"/>
		<path class="st4" d="M1652.1,1100.5v-54h6.8l26.1,41.8l-0.9,1v-42.7h7.4v54h-6.9l-26.1-41.1l0.9-1v42.1H1652.1z"/>
		<path class="st4" d="M1704.8,1100.5v-54h7.5v54H1704.8z M1708.4,1053.7v-7.2h30.7v7.2H1708.4z M1708.4,1077.3v-7.2h26.6v7.2
			H1708.4z M1708.4,1100.5v-7.2h30.7v7.2H1708.4z"/>
	</g>
	<polygon class="st6" points="1502.2,1034.6 1502.2,1034.6 1502.2,1034.6 	"/>
</g>
</svg>
